<?xml version="1.0" standalone="no"?>
<!DOCTYPE svg PUBLIC "-//W3C//DTD SVG 20010904//EN"
 "http://www.w3.org/TR/2001/REC-SVG-20010904/DTD/svg10.dtd">
<svg version="1.0" xmlns="http://www.w3.org/2000/svg"
 width="249.000000pt" height="249.000000pt" viewBox="0 0 249.000000 249.000000"
 preserveAspectRatio="xMidYMid meet">
<metadata>
Created by potrace 1.11, written by Peter Selinger 2001-2013
</metadata>
<g transform="translate(0.000000,249.000000) scale(0.100000,-0.100000)"
fill="#000000" stroke="none">
<path d="M423 2148 c-29 -38 -64 -153 -77 -255 -8 -59 11 -185 40 -262 14 -36
28 -74 31 -83 3 -10 -8 -38 -25 -65 -50 -78 -72 -160 -71 -260 1 -105 13 -150
23 -88 11 64 36 137 61 180 102 176 309 272 502 231 193 -40 338 -181 377
-367 54 -257 -105 -503 -365 -563 -34 -8 -64 -17 -67 -20 -14 -14 169 -9 208
6 22 8 29 4 67 -40 23 -27 74 -75 113 -107 l70 -58 43 29 c23 16 76 63 117
104 41 41 79 74 84 72 29 -10 152 -19 186 -15 48 7 53 23 7 23 -43 0 -133 31
-183 63 -52 32 -129 109 -160 159 -105 166 -90 389 35 544 96 118 222 177 376
177 180 -1 323 -86 416 -247 25 -44 34 -74 55 -175 11 -50 27 -1 27 81 1 100
-21 182 -70 261 -19 33 -33 66 -30 75 3 9 18 49 33 87 21 55 28 93 32 176 5
111 -4 170 -38 261 -36 96 -40 98 -83 35 -165 -240 -503 -397 -852 -397 -205
0 -455 74 -615 183 -66 45 -185 163 -221 219 -17 26 -32 48 -34 48 -1 0 -7 -6
-12 -12z"/>
<path d="M703 1495 c-74 -20 -121 -46 -181 -100 -60 -54 -117 -159 -132 -247
-13 -67 1 -169 31 -237 10 -24 19 -47 19 -51 0 -5 -62 -65 -138 -135 -75 -70
-145 -139 -154 -153 -40 -61 -6 -152 62 -167 60 -13 91 9 231 160 73 80 136
145 140 145 4 0 32 -12 64 -26 77 -35 197 -44 280 -19 84 24 124 47 188 105
104 95 153 240 128 379 -46 255 -290 412 -538 346z m186 -181 c230 -68 230
-400 0 -468 -65 -20 -82 -20 -147 -1 -99 30 -161 110 -170 220 -9 112 61 217
168 250 60 18 86 18 149 -1z"/>
<path d="M774 1175 c3 -8 9 -21 12 -29 8 -21 -25 -48 -53 -41 -30 7 -39 -13
-23 -59 25 -77 121 -102 182 -47 29 26 33 35 33 81 0 46 -4 55 -33 81 -26 23
-42 29 -78 29 -37 0 -45 -3 -40 -15z"/>
<path d="M1700 1496 c-176 -47 -304 -200 -317 -379 -15 -198 95 -372 282 -443
37 -14 76 -19 150 -19 92 0 106 3 167 32 89 42 141 85 189 156 115 173 89 398
-64 551 -97 96 -270 140 -407 102z m290 -245 c165 -173 11 -456 -224 -413 -33
6 -76 23 -98 38 -69 48 -127 179 -95 212 19 19 348 200 366 201 8 1 31 -17 51
-38z"/>
<path d="M1760 1181 c0 -6 5 -13 10 -16 16 -10 11 -44 -8 -54 -10 -6 -28 -7
-40 -4 -20 5 -22 1 -22 -32 0 -29 8 -45 34 -71 38 -38 85 -45 134 -20 73 38
73 154 0 192 -30 16 -108 19 -108 5z"/>
</g>
</svg>
